<svg width="86" height="55" viewBox="0 0 86 55" fill="none" xmlns="http://www.w3.org/2000/svg">
<path fill-rule="evenodd" clip-rule="evenodd" d="M70.816 54.1574L2.00005 54.1574C0.895485 54.1574 5.42979e-05 53.262 5.31926e-05 52.1574L3.16966e-06 2.16755C0 0.697541 1.53266 -0.270181 2.85987 0.361824L27.3007 12.0003C37.0022 16.6201 47.7662 18.5497 58.4683 17.5877L83.5886 15.3297C85.0538 15.198 86.155 16.6399 85.6423 18.0187L72.6906 52.8544C72.3993 53.6378 71.6517 54.1574 70.816 54.1574ZM21.0605 28.4915C21.0605 27.6005 22.1377 27.1544 22.7677 27.7843L40.4136 45.4303C41.0435 46.0602 40.5974 47.1374 39.7065 47.1374H32.0605C25.9854 47.1374 21.0605 42.2125 21.0605 36.1374V28.4915ZM67.5737 32.3913C68.2285 31.8675 69.1984 32.3337 69.1984 33.1722V39.1374C69.1984 43.5557 65.6167 47.1374 61.1984 47.1374H51.9919C51.0467 47.1374 50.6291 45.947 51.3672 45.3565L67.5737 32.3913Z" fill="#F42657"/>
<path d="M21.0605 28.4915C21.0605 27.6005 22.1377 27.1544 22.7677 27.7843L40.4136 45.4303C41.0435 46.0602 40.5974 47.1374 39.7065 47.1374H32.0605C25.9854 47.1374 21.0605 42.2125 21.0605 36.1374V28.4915Z" fill="white"/>
<path d="M69.1984 33.1722C69.1984 32.3337 68.2284 31.8675 67.5737 32.3913L51.3672 45.3565C50.6291 45.947 51.0466 47.1374 51.9919 47.1374H61.1984C65.6166 47.1374 69.1984 43.5557 69.1984 39.1374V33.1722Z" fill="white"/>
<circle cx="32.0924" cy="38.1116" r="4.01145" fill="#F42657"/>
<rect x="56.1621" y="29.0859" width="5.01431" height="15.0429" rx="2" fill="#F42657"/>
</svg>
