<svg width="251" height="101" viewBox="0 0 251 101" fill="none" xmlns="http://www.w3.org/2000/svg">
<path d="M142.248 81.745L155.31 58.6734C155.487 58.3599 155.819 58.166 156.18 58.166H210.901C211.665 58.166 212.147 58.9878 211.774 59.6543L189.903 98.743C189.523 99.4217 188.548 99.4261 188.162 98.7508L181.296 86.7364C181.123 86.4322 181.121 86.0592 181.291 85.7532L194.729 61.6588C195.1 60.9923 194.618 60.1718 193.855 60.1718H191.154C190.793 60.1718 190.46 60.3664 190.283 60.681L177.864 82.7284C177.687 83.043 177.354 83.2376 176.992 83.2376H163.174C162.409 83.2376 161.927 82.4122 162.304 81.7456L173.654 61.6638C174.031 60.9972 173.55 60.1718 172.784 60.1718H170.07C169.708 60.1718 169.374 60.3674 169.197 60.6833L156.858 82.7261C156.681 83.042 156.347 83.2376 155.985 83.2376H143.119C142.353 83.2376 141.871 82.4116 142.248 81.745Z" fill="#F42657"/>
<path fill-rule="evenodd" clip-rule="evenodd" d="M215.636 58.1661C215.276 58.1661 214.943 58.3599 214.766 58.6734L201.704 81.745C201.327 82.4116 201.809 83.2376 202.575 83.2376H236.47C236.831 83.2376 237.164 83.0427 237.341 82.7278L241.292 75.702C241.667 75.0354 241.185 74.2119 240.421 74.2119H226.69C226.318 74.2119 225.976 74.419 225.804 74.7492L222.701 80.6945C222.529 81.0248 222.187 81.2319 221.815 81.2319H219.08C218.323 81.2319 217.841 80.4246 218.199 79.7584L222.515 71.7297C222.69 71.4055 223.028 71.2033 223.396 71.2033H243.271C243.633 71.2033 243.966 71.0077 244.143 70.6918L250.323 59.6546C250.696 58.988 250.214 58.1661 249.45 58.1661H215.636ZM225.651 69.1976C224.886 69.1976 224.404 68.373 224.78 67.7064L228.742 60.6806C228.919 60.3662 229.252 60.1718 229.613 60.1718H232.333C233.099 60.1718 233.58 60.9969 233.204 61.6635L229.237 68.6893C229.059 69.0033 228.727 69.1976 228.366 69.1976H225.651Z" fill="#F42657"/>
<path fill-rule="evenodd" clip-rule="evenodd" d="M138.53 83.2376C138.89 83.2376 139.223 83.0438 139.4 82.7303L152.462 59.6587C152.839 58.9921 152.357 58.166 151.591 58.166L117.696 58.166C117.335 58.166 117.002 58.3609 116.825 58.6759L112.874 65.7016C112.499 66.3682 112.981 67.1918 113.745 67.1918L127.476 67.1918C127.848 67.1918 128.19 66.9847 128.362 66.6544L131.465 60.7091C131.637 60.3789 131.979 60.1718 132.351 60.1718L135.086 60.1718C135.843 60.1718 136.325 60.9791 135.967 61.6453L131.651 69.6739C131.476 69.9982 131.138 70.2004 130.77 70.2004L110.895 70.2004C110.534 70.2004 110.2 70.396 110.023 70.7119L103.843 81.7491C103.47 82.4157 103.952 83.2376 104.716 83.2376L138.53 83.2376ZM128.517 72.2061C129.282 72.2061 129.764 73.0307 129.388 73.6973L125.426 80.7231C125.249 81.0374 124.916 81.2319 124.555 81.2319L121.835 81.2319C121.069 81.2319 120.588 80.4068 120.964 79.7402L124.931 72.7144C125.109 72.4003 125.441 72.2061 125.802 72.2061L128.517 72.2061Z" fill="#F42657"/>
<path d="M64.0247 81.745L77.0859 58.6734C77.2634 58.3599 77.5959 58.166 77.9562 58.166H111.77C112.534 58.166 113.016 58.988 112.643 59.6546L108.709 66.6803C108.532 66.9962 108.199 67.1918 107.837 67.1918H93.9859C93.2181 67.1918 92.7367 66.3623 93.1176 65.6957L95.4192 61.6679C95.8002 61.0013 95.3188 60.1718 94.551 60.1718H91.8461C91.4841 60.1718 91.1503 60.3674 90.9735 60.6833L80.304 79.7434C79.9308 80.41 80.4126 81.2319 81.1766 81.2319H83.7392C84.1015 81.2319 84.4355 81.0359 84.6122 80.7197L90.2037 70.7126C90.3804 70.3964 90.7144 70.2004 91.0767 70.2004H104.989C105.754 70.2004 106.236 71.0245 105.86 71.6911L90.6206 98.7504C90.2395 99.427 89.2663 99.43 88.881 98.7558L81.9935 86.7027C81.8302 86.4169 81.818 86.0691 81.9609 85.7725L82.4912 84.6716C82.8111 84.0077 82.3273 83.2376 81.5903 83.2376H64.8949C64.1289 83.2376 63.6473 82.4116 64.0247 81.745Z" fill="#F42657"/>
<path fill-rule="evenodd" clip-rule="evenodd" d="M131.394 30.0859C131.033 30.0859 130.701 30.2797 130.523 30.5932L117.462 53.6648C117.085 54.3314 117.566 55.1574 118.332 55.1574H152.137C152.498 55.1574 152.83 54.9636 153.007 54.6501L166.069 31.5785C166.446 30.9119 165.964 30.0859 165.198 30.0859H131.394ZM148.87 33.5836C149.247 32.917 148.765 32.0916 148 32.0916H145.285C144.923 32.0916 144.59 32.2872 144.413 32.6031L133.743 51.6632C133.37 52.3298 133.852 53.1517 134.616 53.1517H137.227C137.587 53.1517 137.92 52.9576 138.097 52.6438L148.87 33.5836Z" fill="#1CA9D7"/>
<path d="M79.0688 53.6648L92.13 30.5932C92.3075 30.2797 92.6399 30.0859 93.0002 30.0859H126.814C127.578 30.0859 128.06 30.9078 127.687 31.5744L123.753 38.6002C123.576 38.916 123.243 39.1116 122.881 39.1116H109.03C108.262 39.1116 107.781 38.2822 108.162 37.6155L110.463 33.5877C110.844 32.9211 110.363 32.0916 109.595 32.0916H106.89C106.528 32.0916 106.194 32.2873 106.018 32.6031L93.6784 54.6459C93.5016 54.9618 93.1678 55.1574 92.8058 55.1574H79.939C79.173 55.1574 78.6914 54.3314 79.0688 53.6648Z" fill="#1CA9D7"/>
<path d="M59.4009 54.7481L80.946 16.5545C81.1232 16.2402 81.4561 16.0458 81.8169 16.0458H95.5689C96.3337 16.0458 96.8154 16.8695 96.4404 17.5361L93.04 23.5813C92.665 24.2479 93.1467 25.0716 93.9116 25.0716H94.4693C95.498 25.0716 95.8564 26.4379 94.9601 26.9428L89.6248 29.9486C89.4654 30.0384 89.3337 30.1702 89.2441 30.3296L66.7332 70.349C66.3179 71.0873 65.2301 71.0071 64.9275 70.2159L59.3378 55.5965C59.2315 55.3184 59.2546 55.0074 59.4009 54.7481Z" fill="#1CA9D7"/>
<path d="M0.236816 54.7456L22.2042 16.5414C22.5876 15.8747 22.1063 15.0429 21.3373 15.0429H1.66667C0.911746 15.0429 0.429058 14.2385 0.784314 13.5724L7.74055 0.529412C7.91434 0.203548 8.25359 0 8.6229 0H64.5044C65.2635 0 65.7458 0.812478 65.3823 1.47885L55.1667 20.2074C54.7625 20.9486 53.6785 20.8862 53.3618 20.1037L51.567 15.6679C51.4142 15.2902 51.0475 15.0429 50.64 15.0429H39.6926C39.3334 15.0429 39.0018 15.2356 38.8239 15.5476L7.5661 70.369C7.14785 71.1025 6.06491 71.0195 5.76334 70.2308L0.169671 55.6012C0.0623071 55.3204 0.0869643 55.0062 0.236816 54.7456Z" fill="#1CA9D7"/>
<path fill-rule="evenodd" clip-rule="evenodd" d="M33.8312 30.0859C33.4709 30.0859 33.1385 30.2797 32.961 30.5932L19.8998 53.6648C19.5224 54.3314 20.004 55.1574 20.77 55.1574H54.6649C55.0262 55.1574 55.3594 54.9625 55.5365 54.6476L59.4875 47.6218C59.8624 46.9552 59.3807 46.1317 58.6159 46.1317H44.8858C44.5132 46.1317 44.1716 46.3388 43.9992 46.669L40.8967 52.6143C40.7244 52.9446 40.3827 53.1517 40.0102 53.1517H37.275C36.5186 53.1517 36.0361 52.3444 36.3943 51.6782L40.7108 43.6495C40.8851 43.3253 41.2234 43.1231 41.5916 43.1231H61.4658C61.8278 43.1231 62.1616 42.9275 62.3384 42.6116L68.5179 31.5744C68.8911 30.9078 68.4093 30.0859 67.6453 30.0859H33.8312ZM43.8446 41.1173C43.0793 41.1173 42.5976 40.2928 42.9735 39.6261L46.9354 32.6004C47.1127 32.286 47.4456 32.0916 47.8065 32.0916H50.5265C51.2921 32.0916 51.7737 32.9167 51.3973 33.5833L47.4299 40.609C47.2526 40.9231 46.9199 41.1173 46.5592 41.1173H43.8446Z" fill="#1CA9D7"/>
<path fill-rule="evenodd" clip-rule="evenodd" d="M157.446 26.0801V3.16754C157.446 1.69754 158.979 0.729818 160.306 1.36182L184.747 13.0003C194.449 17.6201 205.213 19.5497 215.915 18.5877L241.035 16.3297C242.5 16.198 243.601 17.6399 243.089 19.0187L230.137 53.8544C229.846 54.6378 229.098 55.1574 228.262 55.1574H159.843C158.318 55.1574 157.354 53.5192 158.094 52.1862L169.836 31.0514C170.576 29.7184 169.612 28.0801 168.087 28.0801H159.446C158.342 28.0801 157.446 27.1847 157.446 26.0801ZM178.507 29.4915C178.507 28.6005 179.584 28.1544 180.214 28.7843L197.86 46.4303C198.49 47.0602 198.044 48.1374 197.153 48.1374H189.507C183.432 48.1374 178.507 43.2125 178.507 37.1374V29.4915ZM225.02 33.3913C225.675 32.8675 226.645 33.3337 226.645 34.1722V40.1374C226.645 44.5557 223.063 48.1374 218.645 48.1374H209.438C208.493 48.1374 208.076 46.947 208.814 46.3565L225.02 33.3913Z" fill="#F42657"/>
<path d="M178.507 29.4915C178.507 28.6005 179.584 28.1544 180.214 28.7843L197.86 46.4303C198.49 47.0602 198.044 48.1374 197.153 48.1374H189.507C183.432 48.1374 178.507 43.2125 178.507 37.1374V29.4915Z" fill="white"/>
<path d="M226.645 34.1722C226.645 33.3337 225.675 32.8675 225.02 33.3913L208.814 46.3565C208.075 46.947 208.493 48.1374 209.438 48.1374H218.645C223.063 48.1374 226.645 44.5557 226.645 40.1374V34.1722Z" fill="white"/>
<circle cx="189.539" cy="39.1116" r="4.01145" fill="#F42657"/>
<rect x="213.609" y="30.0859" width="5.01431" height="15.0429" rx="2" fill="#F42657"/>
</svg>
