<svg width="880" height="880" viewBox="0 0 880 880" fill="none" xmlns="http://www.w3.org/2000/svg">
<path d="M440 880C683.005 880 880 683.005 880 440C880 196.995 683.005 0 440 0C196.995 0 0 196.995 0 440C0 683.005 196.995 880 440 880Z" fill="#1C93D7"/>
<path d="M484.51 383.91C474.43 390.6 464.43 397.39 454.46 404.28C435.82 417.16 417.05 430.67 397.9 443.1C380.4 454.47 363.94 467.36 346.47 478.78C327.64 491.09 304.44 504.08 281.23 497.23C248.37 487.52 222.71 483.46 198.62 474C174.53 464.53 183.13 448.18 201.2 439.58C219.27 430.98 418.91 344.92 418.91 344.92L543.69 293.29C554.52 289.07 565.33 284.82 576.14 280.54C583.43 277.65 590.59 274.41 598.25 272.67C606.93 270.69 617.28 269.78 625.12 274.85C636.34 282.1 636.33 297.91 634.9 309.64C632.12 332.52 628.69 355.33 625.29 378.13C620.8 408.28 616.16 438.4 611.46 468.52C607.29 495.25 603.07 521.97 598.82 548.68C595.75 567.95 594.3 587.84 590.21 606.9C588.36 615.52 585.53 624.2 580.62 631.6C560.04 662.6 521.46 634.94 500.36 619.43C482.97 606.65 409.28 558.99 391.03 546.21C384.51 541.64 379.41 533.67 379.48 525.59C379.58 514.47 387.49 506.05 395.15 498.94C404.58 490.2 414.31 481.79 423.67 472.97C437.72 459.72 451.76 446.48 465.81 433.23L501.98 399.12C508.64 392.84 514.96 386.32 520.86 379.3C522.64 377.19 523.87 375.51 524.07 372.74C524.21 370.76 523.82 368.81 522.32 367.4C516.78 362.2 509.9 367.36 504.93 370.56C498.08 374.97 491.27 379.43 484.48 383.94L484.51 383.91Z" fill="white"/>
</svg>
