<svg width="880" height="880" viewBox="0 0 880 880" fill="none" xmlns="http://www.w3.org/2000/svg">
<path d="M440 880C683.005 880 880 683.005 880 440C880 196.995 683.005 0 440 0C196.995 0 0 196.995 0 440C0 683.005 196.995 880 440 880Z" fill="#1C93D7"/>
<path d="M463.28 395.45C463.28 413.39 463.28 431.34 463.28 449.28C463.28 452.96 463.48 456.61 465.02 460.03C467.2 464.87 470.57 466.44 475.69 465.06C479.93 463.92 483.33 461.36 486.65 458.65C496.75 450.38 504.85 440.31 512.48 429.84C533.2 401.43 549.72 370.65 563.71 338.46C567.15 330.55 571.98 324.38 580.79 322.34C583.65 321.68 586.57 321.45 589.51 321.45C606.84 321.46 624.16 321.44 641.49 321.47C643.68 321.47 645.88 321.66 648.05 321.93C657.9 323.13 662.15 329.15 660.06 338.82C657.9 348.81 653.66 357.98 648.97 366.97C632.05 399.36 611.71 429.62 591.12 459.73C588.23 463.95 585.21 468.08 582.73 472.59C579.77 477.96 580.05 483.01 583.32 488.11C586.44 492.98 590.3 497.22 594.44 501.18C615.1 520.97 634.19 542.17 651.62 564.85C657.28 572.21 662.54 579.83 666.68 588.17C668.31 591.46 669.65 594.85 670.36 598.47C672.47 609.16 667.28 616.49 656.49 617.89C653.84 618.23 651.14 618.41 648.47 618.42C632.24 618.47 616.01 618.13 599.79 618.55C588.49 618.85 579.26 615.02 571.67 606.96C561.38 596.04 551.31 584.91 541.01 573.99C528.43 560.65 515.13 548.08 499.8 537.89C492.75 533.21 485.37 529.15 476.49 529.33C467.45 529.51 464 532.85 463.49 541.98C463.32 545.02 463.3 548.08 463.3 551.13C463.28 566.27 463.33 581.4 463.27 596.54C463.22 608.92 459.13 614.17 446.89 616.43C425 620.48 403.37 618.36 382.11 612.39C345.26 602.03 314.51 581.56 287.67 554.71C269.26 536.29 254.61 514.99 240.44 493.33C216.55 456.79 195.93 418.55 181.23 377.32C177.22 366.06 173.75 354.65 171.76 342.81C169.32 328.27 174.72 321.64 189.76 321.5C208.06 321.33 226.36 321.45 244.66 321.48C246.24 321.48 247.82 321.72 249.39 321.88C255.8 322.53 260.55 325.76 263.88 331.22C266.76 335.95 268.42 341.18 270.27 346.34C284.39 385.61 301.97 423.17 325.75 457.62C332.27 467.07 339.32 476.13 348.29 483.47C351.04 485.72 353.95 487.73 357.52 488.49C362.92 489.64 366.67 487.48 368.14 482.19C369.46 477.44 369.53 472.53 369.54 467.66C369.6 441.42 369.76 415.17 369.5 388.93C369.35 374.04 365.29 360.29 355.47 348.64C353.43 346.22 351.46 343.69 349.87 340.97C345.11 332.85 349.31 323.71 358.52 321.93C360.3 321.59 362.15 321.49 363.97 321.49C391.18 321.46 418.39 321.47 445.59 321.48C446.93 321.48 448.28 321.47 449.61 321.61C457.63 322.44 461.67 326.3 462.67 334.34C463.07 337.6 463.24 340.91 463.25 344.2C463.3 361.29 463.28 378.38 463.28 395.47V395.45Z" fill="white"/>
</svg>
