<svg width="880" height="880" viewBox="0 0 880 880" fill="none" xmlns="http://www.w3.org/2000/svg">
<path d="M440 880C683.005 880 880 683.005 880 440C880 196.995 683.005 0 440 0C196.995 0 0 196.995 0 440C0 683.005 196.995 880 440 880Z" fill="#1C93D7"/>
<path d="M380.391 320.36C381.371 322.52 382.16 324.78 383.04 326.92C384.49 330.46 385.941 334 387.391 337.55C389.041 341.58 390.691 345.61 392.341 349.64C393.771 353.13 395.201 356.62 396.621 360.1C397.401 362.01 398.191 363.93 398.971 365.84C399.021 365.95 399.061 366.07 399.111 366.18L401.641 371.59C403.551 375.69 402.991 380.94 400.611 384.68C399.881 386.13 398.831 387.54 397.931 388.89C397.561 389.45 397.17 390 396.78 390.55C395.66 392.11 394.47 393.64 393.25 395.13C390.21 398.86 386.951 402.41 383.601 405.86C382.331 407.17 381.111 409.31 380.711 411.27C379.991 414.88 386.051 423.33 389.591 428.83C393.151 434.36 397.141 439.6 401.411 444.6C405.491 449.39 409.8 454.07 414.24 458.52C416.25 460.53 418.33 462.47 420.48 464.33C423.43 466.9 426.491 469.35 429.641 471.69C433.591 474.63 437.671 477.4 441.851 480C446.851 483.12 452 486.01 457.25 488.68C462.77 491.49 468.411 494.05 474.151 496.39C474.151 496.39 480.28 499.28 486.05 493.14L506.611 466.81C506.611 466.81 509.501 461.76 516.351 463.2C523.491 464.7 571.5 488.79 571.54 488.81C573.22 489.65 574.85 490.15 576.26 491.5C578.25 493.4 578.761 495.66 578.661 498.88C578.611 500.61 578.561 502.23 578.391 503.95C577.551 512.52 576.36 521.69 571.53 529.07C570.52 530.62 569.391 532.09 568.201 533.51C563.161 539.46 556.621 544.06 549.901 547.96C540.281 553.54 529.441 556.63 518.331 556.71C514.141 556.71 509.981 556.89 505.811 556.4C503.121 556.08 500.45 555.63 497.79 555.09C489.65 553.43 481.671 550.97 473.861 548.17C463.001 544.27 452.42 539.64 442.04 534.62C384.78 506.95 343.561 445.88 343.561 445.88C342.661 444.54 341.621 443.28 340.681 441.96C336.591 436.19 332.74 430.12 329.25 423.94C327.79 421.34 326.38 418.71 325.05 416.05C322.06 410.08 319.391 403.96 317.371 397.61C316.701 395.52 316.04 393.47 315.55 391.34C315.09 389.33 314.701 387.31 314.341 385.28C311.041 366.61 315.911 350.34 320.221 340.48C322.971 334.19 327.511 328.86 331.641 323.47C331.771 323.3 331.91 323.12 332.04 322.95C332.04 322.6 333.111 321.69 333.341 321.43C333.861 320.83 334.381 320.24 334.921 319.66C335.271 319.29 335.62 318.92 335.98 318.56C339.59 314.95 345.36 311.71 350.77 310.62H369.53C369.53 310.62 373.641 310.9 377.111 314.95C378.481 316.55 379.511 318.4 380.391 320.35V320.36Z" fill="white"/>
<path d="M701.881 378.97C698.451 362.2 693.331 345.71 686.661 329.95C680.121 314.49 672.031 299.58 662.611 285.63C653.281 271.83 642.581 258.85 630.791 247.06C619.001 235.27 606.021 224.56 592.221 215.24C578.271 205.82 563.361 197.73 547.901 191.19C532.141 184.52 515.651 179.4 498.881 175.97C481.701 172.45 464.031 170.67 446.361 170.67C428.691 170.67 411.031 172.45 393.841 175.97C377.071 179.4 360.581 184.52 344.821 191.19C329.361 197.73 314.45 205.82 300.5 215.24C286.7 224.56 273.721 235.27 261.931 247.06C250.141 258.85 239.431 271.83 230.111 285.63C220.691 299.58 212.601 314.49 206.061 329.95C199.391 345.71 194.271 362.2 190.841 378.97C187.321 396.15 185.541 413.82 185.541 431.49C185.541 449.16 187.321 466.82 190.841 484.01C194.271 500.78 199.391 517.27 206.061 533.03C210.221 542.86 215.001 552.47 220.361 561.74L202.74 623.62L181.561 698L256.331 678.21L322.051 660.82C329.471 664.85 337.081 668.51 344.831 671.79C360.591 678.46 377.081 683.58 393.851 687.01C411.031 690.53 428.701 692.31 446.371 692.31C464.041 692.31 481.701 690.53 498.891 687.01C515.661 683.58 532.151 678.46 547.911 671.79C563.381 665.25 578.28 657.16 592.23 647.74C606.03 638.41 619.011 627.71 630.801 615.92C642.591 604.13 653.301 591.15 662.621 577.35C672.041 563.4 680.131 548.49 686.671 533.03C693.341 517.27 698.461 500.78 701.891 484.01C705.411 466.83 707.191 449.16 707.191 431.49C707.191 413.82 705.411 396.16 701.891 378.97H701.881ZM446.371 648.29C428.211 648.29 410.571 646.06 393.711 641.85C370.271 636 348.341 626.34 328.621 613.55L274.691 627.82L245.081 635.66L253.291 606.82L268.081 554.87C255.611 536.89 245.801 516.94 239.201 495.58C232.941 475.32 229.571 453.8 229.571 431.49C229.571 311.75 326.641 214.69 446.371 214.69C566.101 214.69 663.171 311.76 663.171 431.49C663.171 551.22 566.101 648.29 446.371 648.29Z" fill="white"/>
</svg>
